<?xml version="1.0" standalone="no"?>
<!DOCTYPE svg PUBLIC "-//W3C//DTD SVG 20010904//EN"
 "http://www.w3.org/TR/2001/REC-SVG-20010904/DTD/svg10.dtd">
<svg version="1.0" xmlns="http://www.w3.org/2000/svg"
 width="3691.000000pt" height="1747.000000pt" viewBox="0 0 3691.000000 1747.000000"
 preserveAspectRatio="xMidYMid meet">

<g transform="translate(0.000000,1747.000000) scale(0.100000,-0.100000)"
fill="#fffff" stroke="none">
<path d="M5740 14155 l0 -575 580 0 580 0 0 575 0 575 -580 0 -580 0 0 -575z"/>
<path d="M3940 13677 c-8 -12 -35 -58 -61 -102 -25 -44 -89 -147 -141 -230
-51 -82 -107 -172 -122 -200 -16 -27 -59 -97 -96 -155 -76 -118 -163 -270
-158 -275 7 -7 420 -261 733 -451 116 -70 235 -144 265 -164 30 -21 96 -60
145 -89 50 -28 151 -90 225 -138 74 -47 148 -93 164 -101 28 -14 93 -54 224
-137 34 -22 61 -44 59 -49 -3 -9 -212 -141 -462 -291 -60 -36 -166 -101 -235
-145 -69 -43 -154 -95 -189 -115 -36 -20 -113 -67 -171 -105 -58 -38 -135 -85
-171 -105 -35 -20 -93 -54 -129 -77 -143 -91 -250 -157 -352 -218 -60 -35
-108 -67 -108 -70 0 -11 58 -111 140 -240 44 -69 96 -154 117 -190 20 -36 71
-119 113 -185 42 -66 109 -175 149 -242 41 -68 76 -123 80 -123 3 0 60 33 126
74 66 41 200 123 297 183 97 59 241 148 320 197 79 49 190 117 248 151 58 34
164 99 235 145 72 46 150 94 173 107 24 13 87 51 140 85 54 33 123 76 155 96
l57 34 0 1038 0 1037 -197 120 c-109 66 -237 145 -285 174 -48 30 -167 103
-265 163 -98 60 -263 161 -368 226 -712 439 -636 397 -655 367z"/>
<path d="M8520 13637 c-58 -36 -188 -116 -290 -178 -102 -62 -222 -137 -268
-166 -46 -29 -113 -71 -150 -92 -37 -21 -112 -67 -167 -102 -100 -63 -318
-197 -515 -316 -58 -34 -147 -89 -198 -120 -230 -144 -313 -195 -466 -288 -91
-55 -165 -103 -166 -106 0 -3 12 -11 28 -18 15 -7 108 -63 207 -125 99 -62
272 -170 385 -239 113 -69 258 -159 324 -199 65 -40 126 -81 134 -90 9 -10 19
-14 22 -10 7 11 95 67 220 142 58 35 179 109 270 165 91 56 190 116 220 135
30 18 102 63 160 99 58 35 173 106 255 156 492 301 583 357 649 401 l54 35
-52 84 c-28 46 -105 172 -171 280 -66 108 -144 235 -174 283 -29 48 -82 134
-117 192 -35 58 -69 113 -76 123 -12 17 -20 14 -118 -46z"/>
<path d="M22300 12644 c-529 -49 -972 -189 -1385 -437 -709 -425 -1211 -1149
-1379 -1987 -50 -249 -60 -363 -61 -695 0 -317 7 -410 46 -635 168 -962 764
-1761 1631 -2185 307 -151 617 -243 983 -292 189 -25 705 -25 897 0 397 52
719 150 1044 316 646 331 1109 863 1353 1554 l30 87 -707 0 -707 0 -30 -58
c-109 -210 -306 -433 -491 -555 -215 -143 -448 -225 -729 -258 -162 -19 -472
-6 -625 26 -783 164 -1298 763 -1416 1645 -20 151 -23 504 -5 660 80 699 432
1249 973 1521 179 90 354 144 568 175 174 25 510 15 676 -20 472 -100 819
-354 1040 -763 l39 -73 707 0 707 0 -23 68 c-60 174 -165 395 -271 568 -398
651 -1090 1120 -1885 1278 -237 48 -340 57 -645 61 -159 1 -310 1 -335 -1z"/>
<path d="M28677 12538 c-12 -36 -2170 -6047 -2185 -6086 -3 -10 127 -12 643
-10 l647 3 202 582 201 583 1221 0 1220 0 174 -502 c95 -277 186 -540 202
-585 l30 -83 649 0 c357 0 649 1 649 3 0 2 -495 1382 -1100 3066 -605 1685
-1100 3065 -1100 3067 0 2 -324 4 -719 4 l-719 0 -15 -42z m1182 -2690 c237
-686 431 -1250 431 -1253 0 -3 -399 -5 -886 -5 -705 0 -885 3 -882 13 3 6 202
583 444 1281 405 1174 439 1267 450 1240 6 -16 206 -590 443 -1276z"/>
<path d="M11280 9505 l0 -3065 615 0 615 0 0 3065 0 3065 -615 0 -615 0 0
-3065z"/>
<path d="M13970 12075 l0 -495 820 0 820 0 0 -2570 0 -2570 615 0 615 0 0
2570 0 2570 815 0 815 0 0 495 0 495 -2250 0 -2250 0 0 -495z"/>
</g>
</svg>
