<svg xmlns="http://www.w3.org/2000/svg" width="1536" height="727" viewBox="0 0 1536 727" version="1.1"><path d="M 238 244.115 L 238 287.230 240.250 285.822 C 241.488 285.047, 245.200 282.724, 248.500 280.660 C 251.800 278.596, 265.750 269.980, 279.500 261.513 C 293.250 253.046, 305.085 245.754, 305.799 245.309 C 306.674 244.765, 299.741 239.968, 284.597 230.641 C 272.220 223.019, 261.961 216.437, 261.797 216.013 C 261.516 215.286, 239.253 201, 238.401 201 C 238.180 201, 238 220.402, 238 244.115" stroke="none" fill="#319ff8" fill-rule="evenodd"/><path d="M 917.870 201.539 C 869.337 209.101, 831.338 240.820, 816.665 286.020 C 811.251 302.699, 810.499 308.249, 810.507 331.500 C 810.515 353.400, 811.001 357.329, 815.617 372.796 C 828.998 417.636, 866.941 451.013, 914.442 459.728 C 926.919 462.018, 953.332 461.967, 965.500 459.631 C 985.651 455.763, 1005.122 447.542, 1019.186 436.965 C 1028.623 429.867, 1041.656 415.636, 1047.292 406.275 C 1051.662 399.017, 1057.823 385.851, 1059.472 380.250 L 1060.135 378 1030.226 378 L 1000.318 378 997.517 383.147 C 993.146 391.177, 982.050 402.204, 974.231 406.287 C 954.587 416.546, 929.222 417.632, 908.878 409.084 C 877.776 396.016, 859.869 360.785, 863.978 320.744 C 865.473 306.183, 867.461 298.911, 873.105 287.362 C 887.744 257.410, 918.682 242.491, 953.619 248.537 C 972.115 251.737, 988.563 262.812, 997 277.745 L 1000.500 283.941 1030.358 283.970 L 1060.217 284 1059.567 281.250 C 1058.311 275.928, 1047.045 254.425, 1042.120 247.949 C 1023.396 223.325, 994.010 206.350, 961.838 201.573 C 949.193 199.696, 929.795 199.680, 917.870 201.539 M 469.246 331.250 L 469.500 459.500 495 459.500 L 520.500 459.500 520.754 331.250 L 521.008 203 495 203 L 468.992 203 469.246 331.250 M 581 224.500 L 581 246 614.995 246 L 648.991 246 649.245 352.750 L 649.500 459.500 675 459.500 L 700.500 459.500 700.755 352.750 L 701.009 246 735.005 246 L 769 246 769 224.500 L 769 203 675 203 L 581 203 581 224.500 M 1147.720 330.670 C 1122.540 400.888, 1102.320 458.720, 1102.786 459.186 C 1103.253 459.653, 1115.529 459.914, 1130.067 459.767 L 1156.500 459.500 1164.888 435.241 L 1173.276 410.982 1223.775 411.241 L 1274.274 411.500 1282.232 434.500 C 1286.609 447.150, 1290.653 458.063, 1291.218 458.750 C 1291.992 459.692, 1298.723 460, 1318.563 460 C 1333.039 460, 1345.107 459.635, 1345.383 459.190 C 1345.658 458.744, 1328.998 411.382, 1308.360 353.940 C 1287.723 296.498, 1267.137 239.150, 1262.615 226.500 L 1254.393 203.500 1223.947 203.251 L 1193.500 203.001 1147.720 330.670 M 1205.655 316.655 C 1195.846 344.980, 1188.017 368.351, 1188.257 368.590 C 1188.496 368.830, 1204.672 368.907, 1224.203 368.763 L 1259.715 368.500 1241.957 317.183 C 1232.191 288.959, 1224.039 265.706, 1223.844 265.510 C 1223.648 265.315, 1215.463 288.330, 1205.655 316.655" stroke="none" fill="#00000" fill-rule="evenodd"/><path d="M 289.909 255.148 C 280.884 260.730, 268.326 268.454, 262.002 272.314 C 255.679 276.173, 247.461 281.281, 243.742 283.666 L 236.978 288.001 237.239 330.250 L 237.500 372.500 261.500 372.500 L 285.500 372.500 286 330.820 L 286.500 289.141 298 296.209 C 304.325 300.097, 311.525 304.497, 314 305.987 C 316.475 307.478, 323.450 311.753, 329.500 315.488 C 351.648 329.161, 358.087 333, 358.872 333 C 359.786 333, 384.023 293.765, 383.956 292.395 C 383.932 291.903, 371.053 283.625, 355.335 274 C 339.617 264.375, 322.650 253.918, 317.629 250.761 C 312.608 247.605, 308.009 245.017, 307.409 245.011 C 306.810 245.005, 298.935 249.567, 289.909 255.148" stroke="none" fill="#33ee7e" fill-rule="evenodd"/><path d="M 238.684 113.649 C 238.308 114.026, 238 125.058, 238 138.167 L 238 162 263.018 162 L 288.036 162 287.768 137.750 L 287.500 113.500 263.434 113.233 C 250.198 113.086, 239.060 113.273, 238.684 113.649 M 237.459 244.500 C 237.460 268.700, 237.590 278.457, 237.749 266.182 C 237.908 253.907, 237.908 234.107, 237.749 222.182 C 237.589 210.257, 237.459 220.300, 237.459 244.500" stroke="none" fill="#1f7ef2" fill-rule="evenodd"/><path d="M 160.714 162.250 C 158.873 165.137, 155.313 170.875, 152.802 175 C 150.291 179.125, 146.174 185.830, 143.652 189.900 C 141.130 193.970, 139.241 197.581, 139.453 197.924 C 139.925 198.688, 147.216 203.247, 179.500 222.967 C 212.101 242.881, 214.007 244.091, 213.964 244.854 C 213.944 245.209, 209.782 248.019, 204.714 251.098 C 184.402 263.437, 143.575 288.586, 139.758 291.110 C 139.012 291.603, 161.197 329.328, 164.011 332.352 C 164.914 333.322, 166.949 332.121, 221.750 298.271 L 237 288.851 236.979 244.676 L 236.958 200.500 225.729 193.618 C 219.553 189.833, 210.450 184.255, 205.500 181.221 C 195.379 175.018, 188.634 170.858, 175.392 162.647 C 170.382 159.541, 165.783 157, 165.172 157 C 164.561 157, 162.555 159.363, 160.714 162.250 M 340.966 167.151 C 331.910 172.734, 317.750 181.444, 309.500 186.508 C 301.250 191.572, 287.175 200.226, 278.222 205.741 L 261.944 215.767 274.722 223.708 C 302.345 240.874, 308.367 244.493, 309.001 244.307 C 309.364 244.200, 314.574 241.104, 320.580 237.425 C 326.586 233.747, 335.325 228.394, 340 225.530 C 344.675 222.666, 355.475 216.054, 364 210.836 C 384.831 198.088, 384 198.637, 384 197.616 C 384 195.355, 359.988 157, 358.573 157 C 357.946 157, 350.023 161.568, 340.966 167.151" stroke="none" fill="#06060a" fill-rule="evenodd"/></svg>